<?xml version="1.0" encoding="iso-8859-1"?>
<!-- Generator: Adobe Illustrator 16.0.0, SVG Export Plug-In . SVG Version: 6.00 Build 0)  -->
<!DOCTYPE svg PUBLIC "-//W3C//DTD SVG 1.1//EN" "http://www.w3.org/Graphics/SVG/1.1/DTD/svg11.dtd">
<svg xmlns="http://www.w3.org/2000/svg" xmlns:xlink="http://www.w3.org/1999/xlink" version="1.1" id="Capa_1" x="0px" y="0px" width="512px" height="512px" viewBox="0 0 439.875 439.875" style="enable-background:new 0 0 439.875 439.875;" xml:space="preserve">
<g>
	<g>
		<path d="M229.5,172.125h-38.25v38.25h38.25c11.475,0,19.125-7.65,19.125-19.125S240.975,172.125,229.5,172.125z" fill="#FFFFFF"/>
		<path d="M382.5,95.625H57.375C24.862,95.625,0,120.487,0,153v133.875c0,32.513,24.862,57.375,57.375,57.375H382.5    c32.513,0,57.375-24.862,57.375-57.375V153C439.875,120.487,415.013,95.625,382.5,95.625z M153,286.875h-19.125V191.25    L114.75,229.5h-9.562h-9.562L76.5,191.25v95.625H57.375V153h9.562H76.5l28.688,57.375L133.875,153h9.562H153V286.875z     M229.5,229.5h-38.25v57.375h-19.125V191.25V153H229.5c21.037,0,38.25,17.212,38.25,38.25    C267.75,212.287,250.537,229.5,229.5,229.5z M382.5,248.625h-19.125v38.25H344.25v-38.25h-57.375V229.5L344.25,153h19.125v76.5    H382.5V248.625z" fill="#FFFFFF"/>
		<polygon points="344.25,229.5 344.25,181.688 309.825,229.5   " fill="#FFFFFF"/>
	</g>
</g>
<g>
</g>
<g>
</g>
<g>
</g>
<g>
</g>
<g>
</g>
<g>
</g>
<g>
</g>
<g>
</g>
<g>
</g>
<g>
</g>
<g>
</g>
<g>
</g>
<g>
</g>
<g>
</g>
<g>
</g>
</svg>
